<svg id="Layer_1" data-name="Layer 1" xmlns="http://www.w3.org/2000/svg" viewBox="0 0 30.02 30">
  <defs>
    <style>
      .cls-1 {
        fill: #ff554d;
      }

      .cls-2 {
        fill: #f2c230;
      }

      .cls-3 {
        fill: #01a2a6;
      }

      .cls-4 {
        fill: #6ed359;
      }
    </style>
  </defs>
  <path class="cls-1" d="M12.8,20.51a1.06,1.06,0,0,1-1.43,0,1.24,1.24,0,0,1-.31-.5,1.52,1.52,0,0,0-.4-.68l-.16-.16-.16.16-3,3L4.53,19.52a.85.85,0,0,1,.3-.15A1.59,1.59,0,0,0,5.49,19l0-.06a1.49,1.49,0,0,0-.08-2.12A1.52,1.52,0,0,0,3,17.49a1,1,0,0,1-.15.33L0,15l2.82-2.83a1,1,0,0,1,.14.31,1.52,1.52,0,0,0,1.85,1.07,1.63,1.63,0,0,0,.66-.38l0,0a1.5,1.5,0,0,0,0-2.13,1.47,1.47,0,0,0-.65-.38,1.66,1.66,0,0,1-.33-.15L7.35,7.65l3.15,3.17.17-.16a1.78,1.78,0,0,0,.41-.7,1.05,1.05,0,1,1,1.79,1l0,0a1,1,0,0,1-.46.27,1.49,1.49,0,0,0-.67.4l-.17.16.16.17,3,3-3.16,3.15.16.17a1.78,1.78,0,0,0,.7.41,1.06,1.06,0,0,1,.71,1.32,1.08,1.08,0,0,1-.27.43Z"/>
  <path class="cls-2" d="M19.53,10.16a1.24,1.24,0,0,1-.15-.33,1.51,1.51,0,0,0-1.87-1,1.55,1.55,0,0,0-.65.39l0,0a1.51,1.51,0,0,0,.05,2.13,1.46,1.46,0,0,0,.64.36,1.23,1.23,0,0,1,.31.14L15,14.68l-2.82-2.83a1.66,1.66,0,0,1,.33-.15,1.49,1.49,0,0,0,.63-.37,1.5,1.5,0,0,0,0-2.13l0,0a1.51,1.51,0,0,0-2,0l-.05,0a1.51,1.51,0,0,0-.38.66,1.09,1.09,0,0,1-.14.31L7.67,7.34l3.16-3.16L10.67,4a1.55,1.55,0,0,0-.69-.4,1.06,1.06,0,0,1-.72-1.31,1.14,1.14,0,0,1,.24-.43l0,0a1.06,1.06,0,0,1,1.49,0,1.17,1.17,0,0,1,.26.44,1.78,1.78,0,0,0,.41.7l.16.16L12,3l3-3,3.15,3.16L18.33,3a1.47,1.47,0,0,0,.4-.68A1.08,1.08,0,0,1,19,1.85l0,0a1.06,1.06,0,0,1,1.43,0,1,1,0,0,1,.33.76,1.06,1.06,0,0,1-.31.75,1,1,0,0,1-.44.26,1.67,1.67,0,0,0-.69.41l-.16.16.15.17,3,3Z"/>
  <path class="cls-3" d="M27.19,17.82a1.09,1.09,0,0,1-.14-.31,1.53,1.53,0,0,0-2.5-.69l0,0a1.51,1.51,0,0,0,0,2.13,1.56,1.56,0,0,0,.67.39,1.87,1.87,0,0,1,.32.15l-2.82,2.82-3.15-3.16-.16.17a1.67,1.67,0,0,0-.41.69,1.06,1.06,0,0,1-1.32.71,1.12,1.12,0,0,1-.46-.29,1,1,0,0,1,0-1.43l0,0a1.19,1.19,0,0,1,.46-.27,1.52,1.52,0,0,0,.68-.4l.16-.16L18.32,18l-3-3,3.16-3.15-.17-.16a1.67,1.67,0,0,0-.69-.41,1.13,1.13,0,0,1-.45-.26,1.06,1.06,0,0,1,0-1.49l0,0a1.06,1.06,0,0,1,1.49,0A1.16,1.16,0,0,1,19,10a1.52,1.52,0,0,0,.4.68l.16.16.16-.16,3-3,2.82,2.82a1,1,0,0,1-.3.14,1.51,1.51,0,0,0-.66.38s0,0-.05.05a1.51,1.51,0,0,0,2.15,2.13l0,0A1.58,1.58,0,0,0,27,12.5a1.87,1.87,0,0,1,.15-.32L30,15Z"/>
  <path class="cls-4" d="M20.49,28.14a1,1,0,0,1-1.49,0,1,1,0,0,1-.26-.44,1.67,1.67,0,0,0-.41-.69l-.16-.16L18,27l-3,3-3.16-3.16-.16.16a1.55,1.55,0,0,0-.4.69,1.09,1.09,0,0,1-.27.45l0,0a1.05,1.05,0,0,1-1.45-1.53,1,1,0,0,1,.44-.26,1.67,1.67,0,0,0,.69-.41l.16-.16-.15-.16-3-3,2.82-2.82a1,1,0,0,1,.15.33,1.51,1.51,0,0,0,1.87,1,1.49,1.49,0,0,0,.65-.39l0,0a1.5,1.5,0,0,0,0-2.13,1.46,1.46,0,0,0-.64-.36.85.85,0,0,1-.3-.15L15,15.31l2.82,2.82a1.26,1.26,0,0,1-.33.16,1.5,1.5,0,0,0-.6,2.54,1.52,1.52,0,0,0,2.06,0L19,20.8a1.4,1.4,0,0,0,.37-.66,1.2,1.2,0,0,1,.15-.3l2.82,2.82-3.17,3.16.16.16a1.57,1.57,0,0,0,.68.4,1.07,1.07,0,0,1,.74,1.3,1.12,1.12,0,0,1-.25.44Z"/>
</svg>
